<svg width="400" height="400" viewBox="0 0 400 400" fill="none" xmlns="http://www.w3.org/2000/svg">
  <!-- Background Circle -->
  <circle cx="200" cy="200" r="200" fill="#E6E6FF" class="dark-mode-bg"/>
  
  <!-- Laptop Base -->
  <path d="M100 240H300V260C300 265.523 295.523 270 290 270H110C104.477 270 100 265.523 100 260V240Z" fill="#0077B6" class="dark-mode-laptop-base"/>
  
  <!-- Laptop Screen -->
  <rect x="120" y="160" width="160" height="80" rx="5" fill="#0096C7" class="dark-mode-laptop-screen"/>
  
  <!-- Code on Screen -->
  <rect x="130" y="170" width="60" height="5" rx="2.5" fill="#E6E6FF" class="dark-mode-code"/>
  <rect x="130" y="185" width="100" height="5" rx="2.5" fill="#E6E6FF" class="dark-mode-code"/>
  <rect x="130" y="200" width="80" height="5" rx="2.5" fill="#E6E6FF" class="dark-mode-code"/>
  <rect x="130" y="215" width="120" height="5" rx="2.5" fill="#E6E6FF" class="dark-mode-code"/>
  <rect x="130" y="230" width="70" height="5" rx="2.5" fill="#E6E6FF" class="dark-mode-code"/>
  
  <!-- Person Head -->
  <circle cx="200" cy="120" r="40" fill="#03045E" class="dark-mode-person"/>
  
  <!-- Person Body -->
  <path d="M160 160C160 160 180 180 200 180C220 180 240 160 240 160V200H160V160Z" fill="#03045E" class="dark-mode-person"/>
  
  <!-- Glasses -->
  <rect x="180" y="110" width="40" height="15" rx="7.5" stroke="#E6E6FF" stroke-width="3" class="dark-mode-glasses"/>
  <rect x="175" y="110" width="15" height="15" rx="7.5" stroke="#E6E6FF" stroke-width="3" class="dark-mode-glasses"/>
  <rect x="210" y="110" width="15" height="15" rx="7.5" stroke="#E6E6FF" stroke-width="3" class="dark-mode-glasses"/>
  
  <!-- Arms -->
  <path d="M160 180L140 220" stroke="#03045E" stroke-width="8" stroke-linecap="round" class="dark-mode-person"/>
  <path d="M240 180L260 220" stroke="#03045E" stroke-width="8" stroke-linecap="round" class="dark-mode-person"/>
  
  <!-- Hands on Keyboard -->
  <rect x="135" y="220" width="10" height="15" rx="5" fill="#03045E" class="dark-mode-person"/>
  <rect x="255" y="220" width="10" height="15" rx="5" fill="#03045E" class="dark-mode-person"/>
  
  <style>
    @media (prefers-color-scheme: dark) {
      .dark-mode-bg { fill: #040583; }
      .dark-mode-laptop-base { fill: #48CAE4; }
      .dark-mode-laptop-screen { fill: #0096C7; }
      .dark-mode-code { fill: #FFFFFF; }
      .dark-mode-person { fill: #FFFFFF; stroke: #FFFFFF; }
      .dark-mode-glasses { stroke: #48CAE4; }
    }
  </style>
</svg>
